<?xml version="1.0" encoding="UTF-8"?>
<svg version="1.1" xmlns="http://www.w3.org/2000/svg" width="2812" height="1320">
<path d="M0 0 C219.55311355 0 219.55311355 0 258 32 C258.78375 32.62132812 259.5675 33.24265625 260.375 33.8828125 C280.65667684 50.71378738 290.56511924 76.34735304 293 102 C294.94553871 128.49880118 288.51375434 155.54275753 271 176 C270.01773438 177.19882812 270.01773438 177.19882812 269.015625 178.421875 C256.16406075 193.52480817 239.15422403 202.71623838 221 210 C222.14855469 210.35191406 223.29710937 210.70382812 224.48046875 211.06640625 C251.16436689 219.45252705 274.67738531 236.32037085 288.23974609 261.28173828 C303.24092091 290.41625136 307.68884748 321.26186355 297.66113281 353.06005859 C287.33891105 383.34823219 265.67028726 404.63955479 237.55444336 418.87890625 C169.81783311 451.57870673 46.53136603 433 0 433 C0 290.11 0 147.22 0 0 Z M57 48 C57 93.87 57 139.74 57 187 C74.263125 187.061875 91.52625 187.12375 109.3125 187.1875 C117.4322644 187.22846802 117.4322644 187.22846802 125.71606445 187.27026367 C130.64815238 187.28030848 130.64815238 187.28030848 135.58024597 187.28633118 C137.74526327 187.29088162 139.91027388 187.30131291 142.07524109 187.31672668 C170.42551272 187.50814985 196.10873358 184.67787394 217.71484375 164.44140625 C231.56963358 149.63928036 234.64515437 131.24519748 234.31640625 111.79296875 C233.61327838 93.82054974 226.32333843 78.9414088 213.5625 66.4375 C192.93580282 48.50669333 165.88207104 47.68447785 140.0078125 47.8046875 C137.87752385 47.80763424 135.74723375 47.80967079 133.61694336 47.81079102 C125.78627325 47.82120526 117.9556343 47.84912761 110.125 47.875 C92.59375 47.91625 75.0625 47.9575 57 48 Z M57 234 C57 284.16 57 334.32 57 386 C75.253125 386.061875 93.50625 386.12375 112.3125 386.1875 C120.90212769 386.22846802 120.90212769 386.22846802 129.6652832 386.27026367 C134.87679023 386.28030768 134.87679023 386.28030768 140.08830261 386.28633118 C142.37831887 386.29088556 144.66832873 386.3013255 146.95829773 386.31672668 C177.19108786 386.50958388 204.25230539 383.226197 227.34375 361.828125 C231.99155467 357.0848175 235.35557241 352.05494049 238.375 346.1875 C238.85767334 345.26517578 238.85767334 345.26517578 239.35009766 344.32421875 C244.35611848 333.98920802 245.54119167 322.97311452 245.4375 311.625 C245.42505249 309.85346558 245.42505249 309.85346558 245.41235352 308.04614258 C245.23969879 299.11172151 244.35267834 291.36173943 241 283 C240.525625 281.81664062 240.05125 280.63328125 239.5625 279.4140625 C231.2078062 260.89716904 215.35918117 248.77362562 197 241 C177.22745873 233.6071693 156.98989294 233.85174678 136.19921875 233.90234375 C134.16719592 233.903817 132.1351727 233.90483535 130.10314941 233.90539551 C122.63126043 233.91060397 115.15937961 233.92456515 107.6875 233.9375 C90.960625 233.958125 74.23375 233.97875 57 234 Z " fill="#000000" transform="translate(1098,423)"/>
<path d="M0 0 C0.59329102 0.49177734 1.18658203 0.98355469 1.79785156 1.49023438 C12.31772484 10.2650528 21.46020223 19.24462251 30 30 C30.79535156 30.97839844 31.59070313 31.95679688 32.41015625 32.96484375 C64.08935687 72.77721473 78.21236882 122.22601269 78.25 172.625 C78.25067474 173.44091614 78.25134949 174.25683228 78.25204468 175.09747314 C78.1857293 225.8429924 63.7103126 276.44932329 31 316 C30.13014089 317.07416414 29.26035063 318.14838403 28.390625 319.22265625 C18.75613421 330.98567694 8.14586683 341.81653971 -4 351 C-4.59731934 351.45197754 -5.19463867 351.90395508 -5.81005859 352.36962891 C-53.35870842 387.99840204 -114.41676202 401.35769 -173 393 C-229.2889195 383.88017193 -281.01966669 356.12826705 -314.9453125 309.3671875 C-329.05233537 289.38298961 -339.76641704 268.39774932 -347 245 C-347.23557617 244.24074219 -347.47115234 243.48148438 -347.71386719 242.69921875 C-365.56644688 183.71694403 -358.8971632 117.57444523 -330.5625 63.125 C-303.728575 13.12694637 -257.72683787 -22.23567402 -203.89453125 -39.0234375 C-135.32129005 -59.30498428 -55.51358899 -46.03239063 0 0 Z M-256.25 51.375 C-291.56704591 91.77862536 -301.11403634 143.34482456 -297.76855469 195.61621094 C-294.27257887 236.34494689 -277.70084916 273.88198734 -249 303 C-248.175 303.83789062 -247.35 304.67578125 -246.5 305.5390625 C-216.13326302 334.70223979 -174.69515315 345.63026259 -133.6015625 345.21484375 C-91.001587 344.21533981 -53.26602527 326.5723851 -23.56640625 296.5390625 C8.29881135 262.40959201 21.07193115 213.7330326 20 168 C18.37908515 126.54934453 7.0550539 85.53670627 -21 54 C-21.71671875 53.16339844 -22.4334375 52.32679688 -23.171875 51.46484375 C-49.46958788 21.29707737 -86.84381293 5.29284744 -126.33984375 2.27734375 C-175.47649766 -0.86973476 -222.29209942 15.24167141 -256.25 51.375 Z " fill="#000000" transform="translate(383,466)"/>
<path d="M0 0 C165.69897655 0 165.69897655 0 185.1875 4.3125 C186.21955566 4.53196289 187.25161133 4.75142578 188.31494141 4.97753906 C221.6294191 12.28779488 252.89109535 30.06968381 271.81103516 59.09228516 C289.35676353 87.24471257 295.0197138 123.23515062 288.09765625 155.6484375 C280.27158933 188.04401918 262.84396013 217.23597445 234 235 C225.77258769 239.80645085 217.09018503 243.51451254 208.1875 246.875 C207.43573486 247.16141357 206.68396973 247.44782715 205.90942383 247.74291992 C200.04484734 249.86684072 194.15386669 251.0321705 188 252 C196.68364146 266.92003007 205.43018024 281.79375742 214.42306519 296.52990723 C220.18726235 305.97799229 225.86362359 315.47515429 231.5 325 C237.44031075 335.03709232 243.4283432 345.0418 249.5 355 C255.97753363 365.62388365 262.35495454 376.30393311 268.69088745 387.01281738 C275.29186322 398.16705134 281.98256637 409.26389655 288.74609375 420.3203125 C289.40867187 421.40570312 290.07125 422.49109375 290.75390625 423.609375 C291.62511108 425.0320166 291.62511108 425.0320166 292.51391602 426.48339844 C293.77760567 428.62338743 294.90342364 430.77242766 296 433 C287.142433 433.30200561 278.2866511 433.53256894 269.42504883 433.67355824 C265.30934131 433.74125222 261.1971684 433.83292916 257.08349609 433.98071289 C253.10850783 434.12261076 249.13690253 434.19981047 245.15957642 434.23340416 C243.64729506 434.25731858 242.13518754 434.30403268 240.62435913 434.37449074 C235.85876418 434.58777343 231.58050698 434.54299294 227 433 C223.24244572 429.05481146 221.25079453 424.96891467 219 420 C217.85382047 417.98560008 216.69020483 415.98089236 215.5 413.9921875 C214.33187038 411.95396274 213.16525204 409.91487124 212 407.875 C206.76178963 398.74628378 201.44983718 389.66689737 196.0625 380.625 C190.26646406 370.89030698 184.59794253 361.09213157 179.00128174 351.24230957 C174.06874795 342.56599318 169.04322372 333.95105421 163.9375 325.375 C156.82235398 313.42346014 149.84737924 301.39633779 142.92041016 289.33496094 C140.8754726 285.78374722 138.81977673 282.23892966 136.76171875 278.6953125 C135.71978474 276.89880545 134.67809651 275.10215615 133.63650513 273.30545044 C132.64543024 271.59770388 131.65172191 269.89148649 130.65795898 268.18530273 C130.06184814 267.15606689 129.4657373 266.12683105 128.8515625 265.06640625 C128.32385254 264.15834229 127.79614258 263.25027832 127.25244141 262.31469727 C126 260 126 260 125 257 C102.56 257 80.12 257 57 257 C57 315.08 57 373.16 57 433 C38.19 433 19.38 433 0 433 C0 290.11 0 147.22 0 0 Z M57 48 C57 101.79 57 155.58 57 211 C71.1075 211.04125 85.215 211.0825 99.75 211.125 C106.36820801 211.15231201 106.36820801 211.15231201 113.12011719 211.18017578 C117.16470183 211.18687516 117.16470183 211.18687516 121.20928955 211.19088745 C122.97508765 211.19390716 124.74088232 211.20083021 126.50665283 211.21115112 C142.54780897 211.30001238 159.3286271 211.24359179 174.875 206.8125 C175.64835693 206.59891846 176.42171387 206.38533691 177.21850586 206.1652832 C196.34228172 200.59270065 211.42484927 188.95516233 221.19824219 171.57788086 C233.19342984 149.10038512 234.17414007 121.60308279 226.93359375 97.44140625 C220.40711852 79.1543519 208.16106375 65.28560263 190.75 56.8125 C171.86709392 48.51110518 153.26607914 47.70154977 132.9765625 47.8046875 C131.02498489 47.80763504 129.07340569 47.80967109 127.12182617 47.81079102 C119.95619304 47.82119596 112.79059395 47.8491182 105.625 47.875 C81.555625 47.936875 81.555625 47.936875 57 48 Z " fill="#000000" transform="translate(628,423)"/>
<path d="M0 0 C96.69 0 193.38 0 293 0 C293 15.51 293 31.02 293 47 C254.06 47 215.12 47 175 47 C175 174.38 175 301.76 175 433 C156.19 433 137.38 433 118 433 C118 305.62 118 178.24 118 47 C79.06 47 40.12 47 0 47 C0 31.49 0 15.98 0 0 Z " fill="#000000" transform="translate(2036,423)"/>
<path d="M0 0 C0.9384375 0.46148438 1.876875 0.92296875 2.84375 1.3984375 C25.09485725 12.71150046 39.88315319 32.62870099 48.3203125 55.59375 C55.09506067 78.14466001 51.82392721 102.23431409 41.265625 122.953125 C28.31926444 146.91862958 5.5302297 162.19257541 -20.015625 169.95703125 C-21.34108834 170.31470125 -22.66940817 170.66190792 -24 171 C-24.72791748 171.18618896 -25.45583496 171.37237793 -26.20581055 171.56420898 C-49.97724331 177.00011368 -76.58640291 173.47156987 -98 162 C-98.9384375 161.53851562 -99.876875 161.07703125 -100.84375 160.6015625 C-123.09485725 149.28849954 -137.88315319 129.37129901 -146.3203125 106.40625 C-153.09506067 83.85533999 -149.82392721 59.76568591 -139.265625 39.046875 C-126.31926444 15.08137042 -103.5302297 -0.19257541 -77.984375 -7.95703125 C-76.65891166 -8.31470125 -75.33059183 -8.66190792 -74 -9 C-73.27208252 -9.18618896 -72.54416504 -9.37237793 -71.79418945 -9.56420898 C-48.02275669 -15.00011368 -21.41359709 -11.47156987 0 0 Z " fill="#000000" transform="translate(2609,591)"/>
<path d="M0 0 C18.81 0 37.62 0 57 0 C57 142.89 57 285.78 57 433 C38.19 433 19.38 433 0 433 C0 290.11 0 147.22 0 0 Z " fill="#000000" transform="translate(1817,423)"/>
<path d="M0 0 C18.81 0 37.62 0 57 0 C57 142.89 57 285.78 57 433 C38.19 433 19.38 433 0 433 C0 290.11 0 147.22 0 0 Z " fill="#000000" transform="translate(1571,423)"/>
<path d="M0 0 C17.63834516 13.37574508 29.96286725 30.03505448 33.8125 52.1328125 C35.45108998 75.57933995 31.27209553 95.75397845 15.8046875 113.9296875 C15.14726562 114.65671875 14.48984375 115.38375 13.8125 116.1328125 C13.17570312 116.83921875 12.53890625 117.545625 11.8828125 118.2734375 C-1.95067402 132.82915424 -23.03459338 143.11456495 -43.16918945 144.30981445 C-72.60621075 144.88584099 -96.57040491 140.28887585 -118.875 119.4140625 C-133.24643474 105.23683634 -142.25797031 88.03044288 -142.56835938 67.57006836 C-142.5269339 45.92007888 -136.86397345 28.36326549 -122.1875 12.1328125 C-121.55070312 11.42640625 -120.91390625 10.72 -120.2578125 9.9921875 C-89.70296867 -22.15788914 -35.61042401 -24.90835509 0 0 Z " fill="#000000" transform="translate(2778.1875,799.8671875)"/>
<path d="M0 0 C1.5182074 1.31256393 3.01947263 2.64507694 4.5 4 C5.19351563 4.60199219 5.88703125 5.20398437 6.6015625 5.82421875 C16.84418368 15.25613053 24.63230373 29.32858755 25.67700195 43.38085938 C25.96415445 54.92187272 26.17408611 65.24654698 21.5 76 C21.12617188 76.886875 20.75234375 77.77375 20.3671875 78.6875 C12.15388132 96.52832403 -3.41379592 109.04309896 -21.5234375 115.96875 C-22.50570312 116.3090625 -23.48796875 116.649375 -24.5 117 C-25.39976562 117.3196875 -26.29953125 117.639375 -27.2265625 117.96875 C-48.65503418 124.20668785 -72.53415063 120.63776581 -91.8671875 110.140625 C-96.87104045 107.27905471 -101.25170147 103.88788331 -105.5 100 C-106.54027344 99.09701172 -106.54027344 99.09701172 -107.6015625 98.17578125 C-117.84418368 88.74386947 -125.63230373 74.67141245 -126.67700195 60.61914062 C-126.96415445 49.07812728 -127.17408611 38.75345302 -122.5 28 C-122.12617188 27.113125 -121.75234375 26.22625 -121.3671875 25.3125 C-113.15388132 7.47167597 -97.58620408 -5.04309896 -79.4765625 -11.96875 C-78.49429688 -12.3090625 -77.51203125 -12.649375 -76.5 -13 C-75.15035156 -13.47953125 -75.15035156 -13.47953125 -73.7734375 -13.96875 C-48.97501093 -21.18769897 -20.30487902 -15.77198554 0 0 Z " fill="#000000" transform="translate(2734.5,1056)"/>
<path d="M0 0 C119.26659892 0 119.26659892 0 141.38671875 20.25390625 C154.04420435 33.95341246 159.61141116 49.30476354 159.4375 67.8125 C159.42614014 69.51708374 159.42614014 69.51708374 159.41455078 71.25610352 C159.05681025 89.56484615 153.21487466 104.137522 140 117 C134.3358215 122.17164124 124.97090194 130 117 130 C125.14434819 141.6516489 133.30775316 153.28929368 141.51464844 164.89697266 C143.05618438 167.07954837 144.59482858 169.26413881 146.1328125 171.44921875 C147.17177084 172.92455252 148.21083194 174.39981394 149.25 175.875 C149.74677246 176.58035889 150.24354492 177.28571777 150.75537109 178.01245117 C154.33490952 183.08435972 157.9759761 188.10578889 161.671875 193.09375 C163 195 163 195 163 196 C135.94575935 198.33081953 135.94575935 198.33081953 128.66259766 194.8984375 C125.05985252 191.8220777 123.2295788 187.72346908 121.26904297 183.48681641 C118.74022988 178.53135467 115.29824196 174.13601594 112.0625 169.625 C110.69173921 167.65482508 109.3245156 165.68218418 107.9609375 163.70703125 C104.39282239 158.55914659 100.80008966 153.42925598 97.1875 148.3125 C96.70224854 147.62430176 96.21699707 146.93610352 95.71704102 146.22705078 C93.86627415 143.60799298 93.86627415 143.60799298 92 141 C91.60111572 140.31534164 91.20223145 139.63068329 90.79125977 138.92527771 C89.12668613 136.75133208 89.12668613 136.75133208 86.36140442 136.51898193 C85.3021727 136.52786438 84.24294098 136.53674683 83.15161133 136.54589844 C81.9505928 136.54620056 80.74957428 136.54650269 79.51216125 136.54681396 C78.21521835 136.56745911 76.91827545 136.58810425 75.58203125 136.609375 C74.2411127 136.61683686 72.90018324 136.62253006 71.55924988 136.62652588 C68.03262134 136.64178701 64.50665344 136.68107151 60.98028564 136.7253418 C57.38082986 136.76628501 53.78126398 136.784754 50.18164062 136.8046875 C43.12051059 136.84544438 36.06119385 136.92373148 29 137 C29 156.47 29 175.94 29 196 C19.43 196 9.86 196 0 196 C0 131.32 0 66.64 0 0 Z M29 25 C29 53.71 29 82.42 29 112 C43.169375 112.0928125 43.169375 112.0928125 57.625 112.1875 C60.57775879 112.21481201 63.53051758 112.24212402 66.57275391 112.27026367 C68.95735263 112.2790393 71.34195592 112.28668067 73.7265625 112.29296875 C74.92885498 112.30831665 76.13114746 112.32366455 77.36987305 112.33947754 C92.54036188 112.34407559 108.35789412 109.27760177 120 98.8125 C128.56797961 89.09489274 131.45879389 77.10133678 130.875 64.4375 C129.66750034 52.8343998 125.27879182 43.79268894 116.8125 35.8125 C104.85558043 26.18417089 89.40052725 24.52226881 74.60546875 24.70703125 C73.4390686 24.71005249 72.27266846 24.71307373 71.07092285 24.71618652 C66.7763566 24.7317045 62.48191798 24.77358611 58.1875 24.8125 C43.7396875 24.9053125 43.7396875 24.9053125 29 25 Z " fill="#000000" transform="translate(1338,76)"/>
<path d="M0 0 C104.30372493 0 104.30372493 0 122 8 C122.93328125 8.41894531 123.8665625 8.83789062 124.828125 9.26953125 C139.76567753 16.67428943 150.4962297 29.24690373 156 44.87109375 C162.01297315 63.68512302 160.39065458 84.67226883 151.38989258 102.23120117 C143.49787966 116.63848765 131.44010002 124.12926424 117 131 C117.77601563 132.06734375 118.55203125 133.1346875 119.3515625 134.234375 C127.11197285 144.93122253 134.73129303 155.71952378 142.29345703 166.55712891 C145.02045856 170.46075942 147.75780689 174.35703033 150.5 178.25 C151.20201538 179.24978882 151.20201538 179.24978882 151.91821289 180.26977539 C154.80844573 184.36931934 157.79280178 188.37388538 160.88085938 192.32714844 C162 194 162 194 162 196 C134.75395377 198.50383388 134.75395377 198.50383388 127.63037109 194.75195312 C123.99295037 191.32923045 122.12796358 186.95339502 120.16552734 182.4296875 C118.04812441 178.0156963 115.06259619 174.19424108 112.1875 170.25 C111.00578497 168.57134942 109.8274301 166.89032868 108.65234375 165.20703125 C108.0579248 164.35963379 107.46350586 163.51223633 106.85107422 162.63916016 C103.64868187 158.07336468 100.44920097 153.50553192 97.25 148.9375 C96.65340576 148.08639648 96.05681152 147.23529297 95.44213867 146.35839844 C94.88888916 145.56852539 94.33563965 144.77865234 93.765625 143.96484375 C93.27868164 143.2699585 92.79173828 142.57507324 92.29003906 141.85913086 C91.17490834 140.25206794 90.08502644 138.62753967 89 137 C86.37497899 136.5605531 86.37497899 136.5605531 83.26513672 136.65942383 C82.06404266 136.65965042 80.86294861 136.65987701 79.62545776 136.66011047 C77.67230148 136.68333626 77.67230148 136.68333626 75.6796875 136.70703125 C74.33733595 136.71262584 72.99497827 136.71689659 71.65261841 136.71989441 C68.11789059 136.73135415 64.58353202 136.76083041 61.0489502 136.79400635 C57.44284145 136.82468328 53.83667132 136.83855888 50.23046875 136.85351562 C43.1533196 136.88410849 36.07718473 136.94282346 29 137 C29 156.47 29 175.94 29 196 C19.43 196 9.86 196 0 196 C0 131.32 0 66.64 0 0 Z M29 25 C29 53.71 29 82.42 29 112 C38.260625 112.061875 47.52125 112.12375 57.0625 112.1875 C59.95394775 112.21481201 62.84539551 112.24212402 65.82446289 112.27026367 C94.71577635 112.51171826 94.71577635 112.51171826 119.4765625 98.75 C128.79336917 88.04761695 131.07296366 75.879655 130.20703125 62.08349609 C129.07838168 50.72512885 124.05091951 41.92604097 115.3125 34.75 C102.75743729 26.02447379 88.87739595 24.67983562 74.01953125 24.8046875 C72.87077515 24.80670166 71.72201904 24.80871582 70.53845215 24.81079102 C66.29642678 24.82116032 62.05445887 24.84908195 57.8125 24.875 C43.5503125 24.936875 43.5503125 24.936875 29 25 Z " fill="#000000" transform="translate(29,76)"/>
<path d="M0 0 C1.12959694 1.01574428 2.25647218 2.03457918 3.375 3.0625 C2.80119828 6.72627743 1.40230342 8.39017225 -1.22265625 10.953125 C-1.94130859 11.66210938 -2.65996094 12.37109375 -3.40039062 13.1015625 C-4.15513672 13.83117187 -4.90988281 14.56078125 -5.6875 15.3125 C-6.82541992 16.43011719 -6.82541992 16.43011719 -7.98632812 17.5703125 C-9.85932207 19.40796694 -11.73895611 21.23825724 -13.625 23.0625 C-14.86352687 22.13574483 -16.10174621 21.20857866 -17.33984375 20.28125 C-18.07315918 19.73210937 -18.80647461 19.18296875 -19.56201172 18.6171875 C-21.0741779 17.47760475 -22.57396609 16.32154728 -24.06640625 15.15625 C-40.62263038 2.71621419 -62.476441 -1.15945032 -82.73046875 1.56640625 C-101.24976379 4.46749753 -120.08392796 12.59762696 -131.89599609 27.68603516 C-144.5363784 45.0920555 -150.16828589 65.57636374 -146.80029297 86.93261719 C-143.4464137 106.04476363 -134.54717791 123.39864583 -118.4375 134.75 C-98.48280382 148.24066221 -75.35018153 151.81508788 -51.88818359 147.55395508 C-44.40815796 146.01149341 -37.59181743 143.14265697 -30.625 140.0625 C-28.15 139.0725 -28.15 139.0725 -25.625 138.0625 C-25.625 116.6125 -25.625 95.1625 -25.625 73.0625 C-16.385 73.0625 -7.145 73.0625 2.375 73.0625 C2.62398076 83.09416132 2.82557248 93.12375668 2.94493389 103.15781403 C3.00223626 107.81764406 3.07988155 112.4752432 3.20483398 117.13378906 C3.32477343 121.63384215 3.39020703 126.13175701 3.41864967 130.63328552 C3.43890369 132.34632537 3.47846185 134.05925394 3.53803062 135.77137756 C3.9854118 149.16855569 3.9854118 149.16855569 -0.00479126 153.86128235 C-2.79896873 155.92684655 -5.5087349 157.53722122 -8.625 159.0625 C-9.97625126 159.84370352 -11.32583203 160.62782494 -12.671875 161.41796875 C-13.8994396 162.04222294 -15.13393259 162.65304119 -16.375 163.25 C-17.04909912 163.57895264 -17.72319824 163.90790527 -18.41772461 164.24682617 C-32.81992255 171.09278175 -48.67147503 175.27555482 -64.625 176.0625 C-66.21248047 176.14177734 -66.21248047 176.14177734 -67.83203125 176.22265625 C-95.43483447 176.91048342 -122.63118974 169.44606742 -143.625 151.0625 C-144.31980469 150.49917969 -145.01460937 149.93585938 -145.73046875 149.35546875 C-164.86040867 133.55569245 -174.80020851 109.51876803 -177.3125 85.3125 C-177.43416058 83.56362911 -177.53932403 81.81350266 -177.625 80.0625 C-177.66625 79.30195313 -177.7075 78.54140625 -177.75 77.7578125 C-178.40935457 53.27927395 -170.91159645 28.59921833 -154.625 10.0625 C-153.9959375 9.28003906 -153.366875 8.49757812 -152.71875 7.69140625 C-135.79707527 -12.54514879 -110.04409485 -22.82030084 -84.3125 -25.5625 C-53.1086325 -27.98995787 -23.9353983 -20.76625148 0 0 Z " fill="#000000" transform="translate(1112.625,98.9375)"/>
<path d="M0 0 C9.57 0 19.14 0 29 0 C30.97846634 4.23806933 32.9565888 8.47629626 34.93389893 12.71490479 C35.63798141 14.22404454 36.34220236 15.7331197 37.04656982 17.24212646 C46.32048747 37.11204655 55.51573479 57.00845544 64.37106323 77.06893921 C68.65007489 86.76065463 73.00605185 96.40550747 77.5 106 C82.70883103 117.12162345 87.71817525 128.32121121 92.67773438 139.55557251 C99.09080889 154.07220136 105.71772967 168.48577435 112.4128418 182.87426758 C112.97384834 184.08223495 112.97384834 184.08223495 113.54618835 185.31460571 C114.25042398 186.83045395 114.95633253 188.34552642 115.66413879 189.85971069 C118 194.88807636 118 194.88807636 118 196 C107.77 196 97.54 196 87 196 C84.65207663 190.75305772 82.30422324 185.50608424 79.95654297 180.2590332 C79.1593827 178.47743967 78.36218291 176.69586382 77.56494141 174.91430664 C76.4129796 172.34005408 75.26116424 169.76573603 74.109375 167.19140625 C73.58256134 166.01427818 73.58256134 166.01427818 73.04510498 164.81336975 C72.36807301 163.30001302 71.69215539 161.78615717 71.01745605 160.27175903 C70.30321101 158.67700452 69.58161047 157.08553372 68.85461426 155.49655151 C68.48783569 154.68936676 68.12105713 153.88218201 67.74316406 153.05053711 C67.40899475 152.32136581 67.07482544 151.59219452 66.73052979 150.84092712 C66 149 66 149 66 147 C31.68 147 -2.64 147 -38 147 C-38.33 148.65 -38.66 150.3 -39 152 C-39.56881783 153.51736043 -40.18520387 155.01753026 -40.84179688 156.49902344 C-41.21888794 157.35631042 -41.595979 158.21359741 -41.98449707 159.09686279 C-42.59545227 160.46430634 -42.59545227 160.46430634 -43.21875 161.859375 C-43.63668823 162.80435852 -44.05462646 163.74934204 -44.48522949 164.72296143 C-45.36715733 166.71431712 -46.25153074 168.70459128 -47.13818359 170.69384766 C-48.50018914 173.75042447 -49.85421548 176.81044014 -51.20703125 179.87109375 C-52.06463896 181.80489388 -52.92269625 183.7384947 -53.78125 185.671875 C-54.18855347 186.59160095 -54.59585693 187.5113269 -55.01550293 188.45892334 C-55.58113953 189.72594086 -55.58113953 189.72594086 -56.15820312 191.01855469 C-56.49049927 191.76514343 -56.82279541 192.51173218 -57.16516113 193.28094482 C-58 195 -58 195 -59 196 C-61.21855264 196.08783542 -63.43988496 196.10694609 -65.66015625 196.09765625 C-66.65685585 196.09553383 -66.65685585 196.09553383 -67.6736908 196.09336853 C-69.80333899 196.08775518 -71.93288339 196.07520054 -74.0625 196.0625 C-75.50325369 196.05748671 -76.94400903 196.05292351 -78.38476562 196.04882812 C-81.92321102 196.03778145 -85.46159539 196.02050792 -89 196 C-83.81219547 183.84825752 -78.47897125 171.77845926 -72.875 159.8125 C-67.78146112 148.93268269 -62.85544715 137.98787487 -58 127 C-53.26441159 116.28531344 -48.4696086 105.60869415 -43.5 95 C-38.63780464 84.61863721 -33.94409201 74.17319032 -29.3125 63.6875 C-23.38813247 50.27844667 -17.3363161 36.93265121 -11.1875 23.625 C-10.79696442 22.77908295 -10.40642883 21.93316589 -10.00405884 21.06161499 C-8.89350967 18.65757536 -7.78122753 16.25434842 -6.66796875 13.8515625 C-6.17682083 12.78989113 -6.17682083 12.78989113 -5.67575073 11.70677185 C-5.21206589 10.70844078 -5.21206589 10.70844078 -4.73901367 9.68994141 C-4.47416672 9.11901764 -4.20931976 8.54809387 -3.93644714 7.95986938 C-2.66031084 5.28907212 -1.32375843 2.64751685 0 0 Z M14 30 C8.47007475 41.6855233 3.20697806 53.48008805 -2 65.3125 C-3.25105945 68.15206821 -4.50244626 70.99149203 -5.75382996 73.83091736 C-6.59699637 75.74428273 -7.43994308 77.65774493 -8.28266907 79.57130432 C-11.03476946 85.81841794 -13.80045891 92.05935251 -16.57421875 98.296875 C-17.61544061 100.64215561 -18.65631692 102.98758917 -19.69702148 105.33309937 C-20.35494865 106.81398281 -21.01411967 108.29431428 -21.67456055 109.77407837 C-22.58192473 111.80756908 -23.48482864 113.84298315 -24.38671875 115.87890625 C-25.14795044 117.58929077 -25.14795044 117.58929077 -25.92456055 119.33422852 C-27.12470913 121.83003788 -27.12470913 121.83003788 -27 124 C0.06 124 27.12 124 55 124 C54.30363144 120.51815718 53.80708656 118.22316105 52.42797852 115.13574219 C52.10511871 114.4061026 51.78225891 113.67646301 51.44961548 112.92471313 C51.09628143 112.14002655 50.74294739 111.35533997 50.37890625 110.546875 C50.00704193 109.70990082 49.63517761 108.87292664 49.25204468 108.0105896 C48.0267077 105.25502641 46.79451228 102.50258425 45.5625 99.75 C44.71041652 97.83604279 43.85894317 95.92181385 43.00805664 94.00732422 C41.68678885 91.03457604 40.36518677 88.06198227 39.04179382 85.09017944 C34.70414488 75.34835995 30.40704825 65.5889229 26.12203979 55.82385254 C24.95361445 53.16171511 23.78366416 50.50025184 22.61352539 47.83886719 C21.89721539 46.20771865 21.18098387 44.57653563 20.46484375 42.9453125 C19.98016129 41.84345108 19.98016129 41.84345108 19.48568726 40.71932983 C17.92893753 37.16890218 16.41196036 33.61064092 15 30 C14.67 30 14.34 30 14 30 Z " fill="#000000" transform="translate(766,76)"/>
<path d="M0 0 C9.57 0 19.14 0 29 0 C34.55719598 10.9903474 39.88070306 22.050103 45 33.25 C45.36305237 34.04168579 45.72610474 34.83337158 46.10015869 35.64904785 C51.78307682 48.04170613 57.34305839 60.48591346 62.84976196 72.95767212 C68.71773492 86.2372837 74.78980669 99.41651117 80.9168396 112.57830811 C86.43386586 124.43114873 91.8773385 136.30925206 97.19091797 148.25488281 C100.20328649 155.01892262 103.25734263 161.76134319 106.3515625 168.48828125 C106.72237442 169.29523438 107.09318634 170.1021875 107.47523499 170.93359375 C109.30314108 174.91028524 111.13520479 178.8849827 112.97338867 182.85693359 C113.63474998 184.29387761 114.29597133 185.73088605 114.95703125 187.16796875 C115.26569122 187.83105545 115.5743512 188.49414215 115.8923645 189.17732239 C118 193.77306364 118 193.77306364 118 196 C107.77 196 97.54 196 87 196 C81 182.125 81 182.125 79.1640625 177.87548828 C74.83984009 167.88669914 70.4212838 157.94788855 66 148 C32.01 148 -1.98 148 -37 148 C-47.57047491 171.96942883 -47.57047491 171.96942883 -58 196 C-67.9 196 -77.8 196 -88 196 C-85.92732703 189.7819811 -83.78758654 184.04596065 -81.0078125 178.171875 C-80.62587738 177.35390945 -80.24394226 176.53594391 -79.85043335 175.69319153 C-79.03522449 173.94816176 -78.21792349 172.20410805 -77.39868164 170.46096802 C-75.22628009 165.83711938 -73.07089338 161.20534567 -70.9140625 156.57421875 C-70.48542908 155.6547496 -70.05679565 154.73528046 -69.61517334 153.78794861 C-66.17874599 146.40772779 -62.81335539 138.99891235 -59.5 131.5625 C-54.2634365 119.81764822 -48.98810204 108.09108311 -43.6875 96.375 C-43.0794754 95.03075958 -43.0794754 95.03075958 -42.45916748 93.65936279 C-36.55191563 80.60241776 -30.60780017 67.56273494 -24.6383667 54.53411865 C-18.5187807 41.17488994 -12.48985722 27.77651204 -6.50708008 14.35546875 C-4.35452916 9.56287846 -2.17403723 4.7828819 0 0 Z M14 30 C4.72634483 50.96119279 -4.54193187 71.92481986 -13.769104 92.90652466 C-14.5415955 94.66253748 -15.31465712 96.41829962 -16.08831787 98.17379761 C-17.17379951 100.63728299 -18.25709483 103.10171878 -19.33984375 105.56640625 C-19.65264786 106.27519928 -19.96545197 106.98399231 -20.28773499 107.71426392 C-22.650829 113.1033248 -24.81097531 118.52743827 -27 124 C0.39 124 27.78 124 56 124 C51.92032385 113.3266558 51.92032385 113.3266558 47.42578125 102.859375 C47.10405945 102.14479126 46.78233765 101.43020752 46.4508667 100.69396973 C45.40775227 98.37794324 44.36012229 96.06399038 43.3125 93.75 C41.80479122 90.40737272 40.30019076 87.06335509 38.796875 83.71875 C38.40931534 82.85687073 38.02175568 81.99499146 37.62245178 81.10699463 C34.6928908 74.57810644 31.81304486 68.02841047 28.953125 61.46875 C28.54188889 60.52646545 28.13065277 59.58418091 27.70695496 58.61334229 C26.0923183 54.91201054 24.47839993 51.21040802 22.87368774 47.50476074 C21.76478028 44.94414962 20.6504138 42.38597526 19.53515625 39.828125 C19.20570007 39.06222046 18.8762439 38.29631592 18.5368042 37.50720215 C16.76591371 33.43194395 16.76591371 33.43194395 14 30 Z " fill="#000000" transform="translate(333,76)"/>
<path d="M0 0 C3.56893502 2.79286466 6.82039113 5.77405803 10 9 C10.57363281 9.56332031 11.14726562 10.12664062 11.73828125 10.70703125 C22.16766029 21.78319349 24.60861071 35.45557133 24.30859375 50.0390625 C23.66281404 64.25693447 15.95306504 76.01406994 5.86328125 85.64453125 C-11.13650492 99.62934853 -30.66352319 102.27371331 -52 101 C-66.93207555 99.21514316 -79.6093252 91.54208718 -90 81 C-90.57363281 80.43667969 -91.14726562 79.87335938 -91.73828125 79.29296875 C-102.16766029 68.21680651 -104.60861071 54.54442867 -104.30859375 39.9609375 C-103.66281404 25.74306553 -95.95306504 13.98593006 -85.86328125 4.35546875 C-61.87532074 -15.37814679 -25.82868379 -17.0737663 0 0 Z " fill="#000000" transform="translate(2504,1203)"/>
<path d="M0 0 C32.67 0 65.34 0 99 0 C99.1209091 35.46667011 99.1209091 35.46667011 99.14648438 50.40625 C99.16423838 60.69405641 99.18503253 70.98178875 99.22631836 81.26953125 C99.25638115 88.76430097 99.27561273 96.25901019 99.28226548 103.75383854 C99.2861494 107.71600403 99.29516617 111.67799658 99.31719017 115.6401062 C99.33782331 119.38295713 99.34378079 123.12556683 99.33932304 126.86846924 C99.34051906 128.86929432 99.35651876 130.87009422 99.3732605 132.87084961 C99.31226562 151.11658463 95.5825554 169.65356296 82.78125 183.37890625 C69.82195401 195.82557186 52.7128532 199.37001398 35.23046875 199.1484375 C15.10245319 198.22357101 -2.90555695 191.16824875 -16.671875 176.1796875 C-18.125 174.375 -18.125 174.375 -20 171 C-18.90336461 166.48663665 -16.20119236 163.75133231 -13.0625 160.4375 C-10.1930047 157.39051014 -7.43153712 154.41057187 -5 151 C-1.50965831 152.44983424 0.2243857 154.2534948 2.5625 157.1875 C10.983799 166.90799569 22.25857293 172.13136389 34.98046875 173.16015625 C43.77583773 173.51819782 52.34434433 171.54872533 59.21484375 165.86328125 C68.04501429 156.64666999 69.29497286 146.17137526 69.31884766 133.984375 C69.32889328 132.80302475 69.3389389 131.6216745 69.34928894 130.40452576 C69.38005328 126.51968855 69.39713758 122.63492006 69.4140625 118.75 C69.43170145 116.04856911 69.45225815 113.34716252 69.4727478 110.64575195 C69.51940702 104.27471902 69.55621303 97.90366937 69.58942068 91.53255367 C69.6314966 83.56200637 69.68682892 75.59155797 69.7421875 67.62109375 C69.84080337 53.41411697 69.9194704 39.20711636 70 25 C46.9 25 23.8 25 0 25 C0 16.75 0 8.5 0 0 Z " fill="#000000" transform="translate(514,76)"/>
<path d="M0 0 C5.7686281 4.87440308 10.61113017 10.22226034 14 17 C14.31839844 17.61617187 14.63679688 18.23234375 14.96484375 18.8671875 C18.95282799 28.31338059 18.5850107 41.20635994 14.875 50.625 C8.37907332 63.79830383 -1.49548639 72.35553533 -15 78 C-15.804375 78.34160156 -16.60875 78.68320313 -17.4375 79.03515625 C-32.4506163 84.20794472 -51.08663636 82.14353891 -65.19921875 75.4921875 C-74.92069334 70.2472263 -83.01984877 62.96030246 -88 53 C-88.31839844 52.38382813 -88.63679688 51.76765625 -88.96484375 51.1328125 C-92.95282799 41.68661941 -92.5850107 28.79364006 -88.875 19.375 C-82.37907332 6.20169617 -72.50451361 -2.35553533 -59 -8 C-58.195625 -8.34160156 -57.39125 -8.68320313 -56.5625 -9.03515625 C-38.00385646 -15.42956068 -15.62993215 -11.24646676 0 0 Z " fill="#000000" transform="translate(2239,1239)"/>
<path d="M0 0 C9.57 0 19.14 0 29 0 C29 64.68 29 129.36 29 196 C19.43 196 9.86 196 0 196 C0 131.32 0 66.64 0 0 Z " fill="#000000" transform="translate(1584,76)"/>
<path d="M0 0 C9.57 0 19.14 0 29 0 C29 64.68 29 129.36 29 196 C19.43 196 9.86 196 0 196 C0 131.32 0 66.64 0 0 Z " fill="#000000" transform="translate(1210,76)"/>
<path d="M0 0 C6.93651313 5.00690129 13.76222839 11.58809172 15.25 20.3125 C16.27391864 31.25158017 14.98619234 38.95004505 8.0625 47.5 C-0.7180992 56.8572911 -11.36845797 61.34067905 -24.12060547 61.78515625 C-38.06443176 61.93016169 -49.6272387 58.99349709 -59.9765625 49.20703125 C-67.59490232 41.15929409 -69.37717902 34.78038515 -69.09375 23.71484375 C-68.14689158 14.34309739 -62.80895323 7.52505144 -55.71875 1.62109375 C-39.54024746 -10.07314993 -16.90101617 -10.26643791 0 0 Z " fill="#000000" transform="translate(2004.75,1202.6875)"/>
<path d="M0 0 C4.66768486 3.39029778 8.42118938 6.76516887 11 12 C11.80938263 17.41775942 11.75015621 22.37966258 9.4375 27.375 C1.84204399 35.55472186 -5.22631738 40.03186376 -16.62036133 40.47290039 C-27.91059152 40.60147488 -35.7662699 38.56521435 -44.30859375 30.87890625 C-48.96516058 25.70613802 -49.54344857 21.6691659 -49.34375 14.87109375 C-48.61820274 8.81112512 -44.5928295 5.04014719 -40.01171875 1.390625 C-29.05904468 -6.18054387 -11.46592816 -7.24833167 0 0 Z " fill="#000000" transform="translate(1841,1116)"/>
<path d="M0 0 C3.57883091 2.1512824 6.19859091 4.44105184 8.41796875 8.015625 C9.21144746 12.02269248 9.31795715 16.16564884 7.50390625 19.89453125 C4.00307618 24.40043834 -0.36978458 26.70765563 -5.94921875 27.484375 C-13.36438065 27.55043435 -19.04061507 27.31975132 -24.58203125 22.015625 C-27.96854214 18.24230984 -28.15600836 15.42382748 -27.99609375 10.48828125 C-27.30105085 6.33769489 -25.72154096 4.81388366 -22.58203125 2.015625 C-15.7806341 -2.01304348 -7.48834706 -2.85486151 0 0 Z " fill="#000000" transform="translate(1731.58203125,1008.984375)"/>
</svg>
